<svg width="15" height="10" viewBox="0 0 15 10" fill="none" xmlns="http://www.w3.org/2000/svg">
<path d="M14 1.5V8.5C14 8.76522 13.8946 9.01957 13.7071 9.20711C13.5196 9.39464 13.2652 9.5 13 9.5H2C1.73478 9.5 1.48043 9.39464 1.29289 9.20711C1.10536 9.01957 1 8.76522 1 8.5V1.5M14 1.5C14 1.23478 13.8946 0.98043 13.7071 0.792893C13.5196 0.605357 13.2652 0.5 13 0.5H2C1.73478 0.5 1.48043 0.605357 1.29289 0.792893C1.10536 0.98043 1 1.23478 1 1.5M14 1.5L8.069 5.606C7.9018 5.72169 7.70332 5.78366 7.5 5.78366C7.29668 5.78366 7.0982 5.72169 6.931 5.606L1 1.5" stroke="#808080" stroke-linecap="round" stroke-linejoin="round"/>
</svg>
