<svg width="16" height="12" viewBox="0 0 16 12" fill="none" xmlns="http://www.w3.org/2000/svg">
<path fill-rule="evenodd" clip-rule="evenodd" d="M8 3.5C7.33696 3.5 6.70107 3.76339 6.23223 4.23223C5.76339 4.70107 5.5 5.33696 5.5 6C5.5 6.66304 5.76339 7.29893 6.23223 7.76777C6.70107 8.23661 7.33696 8.5 8 8.5C8.66304 8.5 9.29893 8.23661 9.76777 7.76777C10.2366 7.29893 10.5 6.66304 10.5 6C10.5 5.33696 10.2366 4.70107 9.76777 4.23223C9.29893 3.76339 8.66304 3.5 8 3.5ZM6.5 6C6.5 5.60218 6.65804 5.22064 6.93934 4.93934C7.22064 4.65804 7.60218 4.5 8 4.5C8.39782 4.5 8.77936 4.65804 9.06066 4.93934C9.34196 5.22064 9.5 5.60218 9.5 6C9.5 6.39782 9.34196 6.77936 9.06066 7.06066C8.77936 7.34196 8.39782 7.5 8 7.5C7.60218 7.5 7.22064 7.34196 6.93934 7.06066C6.65804 6.77936 6.5 6.39782 6.5 6Z" fill="#808080"/>
<path fill-rule="evenodd" clip-rule="evenodd" d="M7.99998 0.166687C4.99065 0.166687 2.96331 1.96935 1.78665 3.49802L1.76598 3.52535C1.49931 3.87135 1.25465 4.18935 1.08865 4.56535C0.910646 4.96869 0.833313 5.40802 0.833313 6.00002C0.833313 6.59202 0.910646 7.03135 1.08865 7.43469C1.25531 7.81069 1.49998 8.12935 1.76598 8.47469L1.78731 8.50202C2.96331 10.0307 4.99065 11.8334 7.99998 11.8334C11.0093 11.8334 13.0366 10.0307 14.2133 8.50202L14.234 8.47469C14.5006 8.12935 14.7453 7.81069 14.9113 7.43469C15.0893 7.03135 15.1666 6.59202 15.1666 6.00002C15.1666 5.40802 15.0893 4.96869 14.9113 4.56535C14.7446 4.18935 14.5 3.87135 14.234 3.52535L14.2126 3.49802C13.0366 1.96935 11.0093 0.166687 7.99998 0.166687ZM2.57998 4.10802C3.66531 2.69669 5.43331 1.16669 7.99998 1.16669C10.5666 1.16669 12.334 2.69669 13.42 4.10802C13.7133 4.48802 13.884 4.71469 13.9966 4.96935C14.102 5.20802 14.1666 5.49935 14.1666 6.00002C14.1666 6.50069 14.102 6.79202 13.9966 7.03069C13.884 7.28535 13.7126 7.51202 13.4206 7.89202C12.3333 9.30335 10.5666 10.8334 7.99998 10.8334C5.43331 10.8334 3.66598 9.30335 2.57998 7.89202C2.28665 7.51202 2.11598 7.28535 2.00331 7.03069C1.89798 6.79202 1.83331 6.50069 1.83331 6.00002C1.83331 5.49935 1.89798 5.20802 2.00331 4.96935C2.11598 4.71469 2.28798 4.48802 2.57998 4.10802Z" fill="#808080"/>
</svg>
