<svg width="17" height="16" viewBox="0 0 17 16" fill="none" xmlns="http://www.w3.org/2000/svg">
<path d="M15 4.5V11.5C15 11.7652 14.8946 12.0196 14.7071 12.2071C14.5196 12.3946 14.2652 12.5 14 12.5H3C2.73478 12.5 2.48043 12.3946 2.29289 12.2071C2.10536 12.0196 2 11.7652 2 11.5V4.5M15 4.5C15 4.23478 14.8946 3.98043 14.7071 3.79289C14.5196 3.60536 14.2652 3.5 14 3.5H3C2.73478 3.5 2.48043 3.60536 2.29289 3.79289C2.10536 3.98043 2 4.23478 2 4.5M15 4.5L9.069 8.606C8.9018 8.72169 8.70332 8.78366 8.5 8.78366C8.29668 8.78366 8.0982 8.72169 7.931 8.606L2 4.5" stroke="#808080" stroke-linecap="round" stroke-linejoin="round"/>
</svg>
