<svg width="11" height="14" viewBox="0 0 11 14" fill="none" xmlns="http://www.w3.org/2000/svg">
<path d="M8.83335 4.99992V3.66659C8.83335 2.78253 8.48216 1.93468 7.85704 1.30956C7.23192 0.684441 6.38408 0.333252 5.50002 0.333252C4.61597 0.333252 3.76812 0.684441 3.143 1.30956C2.51788 1.93468 2.16669 2.78253 2.16669 3.66659V4.99992C1.63625 4.99992 1.12755 5.21063 0.752474 5.5857C0.377401 5.96078 0.166687 6.46949 0.166687 6.99992V11.6666C0.166687 12.197 0.377401 12.7057 0.752474 13.0808C1.12755 13.4559 1.63625 13.6666 2.16669 13.6666H8.83335C9.36379 13.6666 9.87249 13.4559 10.2476 13.0808C10.6226 12.7057 10.8334 12.197 10.8334 11.6666V6.99992C10.8334 6.46949 10.6226 5.96078 10.2476 5.5857C9.87249 5.21063 9.36379 4.99992 8.83335 4.99992ZM3.50002 3.66659C3.50002 3.13615 3.71073 2.62744 4.08581 2.25237C4.46088 1.8773 4.96959 1.66659 5.50002 1.66659C6.03045 1.66659 6.53916 1.8773 6.91423 2.25237C7.28931 2.62744 7.50002 3.13615 7.50002 3.66659V4.99992H3.50002V3.66659ZM9.50002 11.6666C9.50002 11.8434 9.42978 12.013 9.30476 12.138C9.17974 12.263 9.01017 12.3333 8.83335 12.3333H2.16669C1.98988 12.3333 1.82031 12.263 1.69528 12.138C1.57026 12.013 1.50002 11.8434 1.50002 11.6666V6.99992C1.50002 6.82311 1.57026 6.65354 1.69528 6.52851C1.82031 6.40349 1.98988 6.33325 2.16669 6.33325H8.83335C9.01017 6.33325 9.17974 6.40349 9.30476 6.52851C9.42978 6.65354 9.50002 6.82311 9.50002 6.99992V11.6666Z" fill="#808080"/>
</svg>
