<svg width="12" height="14" viewBox="0 0 12 14" fill="none" xmlns="http://www.w3.org/2000/svg">
<path d="M9.33329 4.99998V3.66665C9.33329 2.78259 8.9821 1.93475 8.35698 1.30962C7.73186 0.684502 6.88401 0.333313 5.99996 0.333313C5.1159 0.333313 4.26806 0.684502 3.64294 1.30962C3.01782 1.93475 2.66663 2.78259 2.66663 3.66665V4.99998C2.13619 4.99998 1.62749 5.21069 1.25241 5.58577C0.87734 5.96084 0.666626 6.46955 0.666626 6.99998V11.6666C0.666626 12.1971 0.87734 12.7058 1.25241 13.0809C1.62749 13.4559 2.13619 13.6666 2.66663 13.6666H9.33329C9.86373 13.6666 10.3724 13.4559 10.7475 13.0809C11.1226 12.7058 11.3333 12.1971 11.3333 11.6666V6.99998C11.3333 6.46955 11.1226 5.96084 10.7475 5.58577C10.3724 5.21069 9.86373 4.99998 9.33329 4.99998ZM3.99996 3.66665C3.99996 3.13621 4.21067 2.62751 4.58575 2.25243C4.96082 1.87736 5.46953 1.66665 5.99996 1.66665C6.53039 1.66665 7.0391 1.87736 7.41417 2.25243C7.78925 2.62751 7.99996 3.13621 7.99996 3.66665V4.99998H3.99996V3.66665ZM9.99996 11.6666C9.99996 11.8435 9.92972 12.013 9.8047 12.1381C9.67967 12.2631 9.5101 12.3333 9.33329 12.3333H2.66663C2.48981 12.3333 2.32025 12.2631 2.19522 12.1381C2.0702 12.013 1.99996 11.8435 1.99996 11.6666V6.99998C1.99996 6.82317 2.0702 6.6536 2.19522 6.52858C2.32025 6.40355 2.48981 6.33331 2.66663 6.33331H9.33329C9.5101 6.33331 9.67967 6.40355 9.8047 6.52858C9.92972 6.6536 9.99996 6.82317 9.99996 6.99998V11.6666Z" fill="#303030"/>
</svg>
