<svg width="17" height="16" viewBox="0 0 17 16" fill="none" xmlns="http://www.w3.org/2000/svg">
<path d="M11.8334 5.99992V4.66659C11.8334 3.78253 11.4822 2.93468 10.857 2.30956C10.2319 1.68444 9.38408 1.33325 8.50002 1.33325C7.61597 1.33325 6.76812 1.68444 6.143 2.30956C5.51788 2.93468 5.16669 3.78253 5.16669 4.66659V5.99992C4.63625 5.99992 4.12755 6.21063 3.75247 6.5857C3.3774 6.96078 3.16669 7.46949 3.16669 7.99992V12.6666C3.16669 13.197 3.3774 13.7057 3.75247 14.0808C4.12755 14.4559 4.63625 14.6666 5.16669 14.6666H11.8334C12.3638 14.6666 12.8725 14.4559 13.2476 14.0808C13.6226 13.7057 13.8334 13.197 13.8334 12.6666V7.99992C13.8334 7.46949 13.6226 6.96078 13.2476 6.5857C12.8725 6.21063 12.3638 5.99992 11.8334 5.99992ZM6.50002 4.66659C6.50002 4.13615 6.71073 3.62744 7.08581 3.25237C7.46088 2.8773 7.96959 2.66659 8.50002 2.66659C9.03045 2.66659 9.53916 2.8773 9.91423 3.25237C10.2893 3.62744 10.5 4.13615 10.5 4.66659V5.99992H6.50002V4.66659ZM12.5 12.6666C12.5 12.8434 12.4298 13.013 12.3048 13.138C12.1797 13.263 12.0102 13.3333 11.8334 13.3333H5.16669C4.98988 13.3333 4.82031 13.263 4.69528 13.138C4.57026 13.013 4.50002 12.8434 4.50002 12.6666V7.99992C4.50002 7.82311 4.57026 7.65354 4.69528 7.52851C4.82031 7.40349 4.98988 7.33325 5.16669 7.33325H11.8334C12.0102 7.33325 12.1797 7.40349 12.3048 7.52851C12.4298 7.65354 12.5 7.82311 12.5 7.99992V12.6666Z" fill="#808080"/>
</svg>
