<svg width="60" height="60" viewBox="0 0 60 60" fill="none" xmlns="http://www.w3.org/2000/svg">
<path d="M13.125 10H46.875C48.9503 9.99986 50.9471 10.7939 52.4556 12.2192C53.9641 13.6445 54.87 15.593 54.9875 17.665L55 18.125V41.875C55.0001 43.9503 54.2061 45.9471 52.7808 47.4556C51.3555 48.9641 49.407 49.87 47.335 49.9875L46.875 50H13.125C11.0497 50.0001 9.05293 49.2061 7.54442 47.7808C6.03592 46.3555 5.13 44.407 5.0125 42.335L5 41.875V18.125C4.99986 16.0497 5.79389 14.0529 7.21918 12.5444C8.64447 11.0359 10.593 10.13 12.665 10.0125L13.125 10ZM51.25 23.4325L30.875 34.1575C30.6449 34.279 30.3921 34.3514 30.1326 34.3699C29.873 34.3884 29.6125 34.3527 29.3675 34.265L29.1275 34.16L8.75 23.435V41.875C8.75004 42.973 9.16293 44.0308 9.9067 44.8385C10.6505 45.6462 11.6707 46.1446 12.765 46.235L13.125 46.25H46.875C47.9734 46.2499 49.0315 45.8367 49.8393 45.0924C50.647 44.3481 51.1452 43.3272 51.235 42.2325L51.25 41.875V23.4325ZM46.875 13.75H13.125C12.027 13.75 10.9692 14.1629 10.1615 14.9067C9.35384 15.6505 8.85535 16.6707 8.765 17.765L8.75 18.125V19.1975L30 30.3825L51.25 19.195V18.125C51.2499 17.0266 50.8367 15.9685 50.0924 15.1607C49.3481 14.353 48.3272 13.8548 47.2325 13.765L46.875 13.75Z" fill="black"/>
</svg>
