<svg width="60" height="60" viewBox="0 0 60 60" fill="none" xmlns="http://www.w3.org/2000/svg">
<path d="M26.5 34.5L21.125 29.125C20.6667 28.6667 20.0833 28.4375 19.375 28.4375C18.6667 28.4375 18.0833 28.6667 17.625 29.125C17.1667 29.5833 16.9375 30.1667 16.9375 30.875C16.9375 31.5833 17.1667 32.1667 17.625 32.625L24.75 39.75C25.25 40.25 25.8333 40.5 26.5 40.5C27.1667 40.5 27.75 40.25 28.25 39.75L42.375 25.625C42.8333 25.1667 43.0625 24.5833 43.0625 23.875C43.0625 23.1667 42.8333 22.5833 42.375 22.125C41.9167 21.6667 41.3333 21.4375 40.625 21.4375C39.9167 21.4375 39.3333 21.6667 38.875 22.125L26.5 34.5ZM30 55C26.5417 55 23.2917 54.3433 20.25 53.03C17.2083 51.7167 14.5625 49.9358 12.3125 47.6875C10.0625 45.4392 8.28167 42.7933 6.97 39.75C5.65834 36.7067 5.00167 33.4567 5 30C4.99834 26.5433 5.655 23.2933 6.97 20.25C8.285 17.2067 10.0658 14.5608 12.3125 12.3125C14.5592 10.0642 17.205 8.28333 20.25 6.97C23.295 5.65667 26.545 5 30 5C33.455 5 36.705 5.65667 39.75 6.97C42.795 8.28333 45.4408 10.0642 47.6875 12.3125C49.9342 14.5608 51.7158 17.2067 53.0325 20.25C54.3492 23.2933 55.005 26.5433 55 30C54.995 33.4567 54.3383 36.7067 53.03 39.75C51.7217 42.7933 49.9408 45.4392 47.6875 47.6875C45.4342 49.9358 42.7883 51.7175 39.75 53.0325C36.7117 54.3475 33.4617 55.0033 30 55Z" fill="#16A600"/>
</svg>
